<svg width="15" height="18" fill="none" xmlns="http://www.w3.org/2000/svg">
    <path fill-rule="evenodd" clip-rule="evenodd" d="M7.074 8.905c.477-.666.424-1.368.093-2.63C6.512 3.779 6.773 2.41 9.03.79L10.132 0l.266 1.325c.284 1.407.749 2.278 1.943 3.953l.095.133c1.72 2.413 2.348 3.867 2.348 6.508 0 3.204-3.258 6.081-6.99 6.081s-6.99-2.876-6.99-6.08c0-.06 0-.059-.01-.324-.079-2.047.302-3.649 1.842-5.379a9.34 9.34 0 011.112-1.053l.92-.742.442 1.092c.326.807.71 1.441 1.142 1.907.366.394.638.89.822 1.484zm-3.13-1.536C2.76 8.7 2.478 9.887 2.54 11.529c.012.307.011.296.011.39 0 2.196 2.433 4.344 5.243 4.344 2.81 0 5.243-2.148 5.243-4.344 0-2.208-.497-3.357-2.027-5.503l-.095-.133c-.93-1.304-1.483-2.21-1.85-3.224-.598.713-.563 1.422-.207 2.777.655 2.497.394 3.865-1.863 5.484l-1.287.924-.097-1.575c-.061-1.006-.29-1.69-.643-2.07a6.854 6.854 0 01-.945-1.316 6.744 6.744 0 00-.078.086z" fill="#FF783E"/>
</svg>
