<svg width="50" height="50" fill="none" xmlns="http://www.w3.org/2000/svg">
    <rect opacity=".1" width="50" height="50" rx="10" fill="#25AFA2"/>
    <path fill-rule="evenodd" clip-rule="evenodd" d="M29.571 29.903v2.383a4.571 4.571 0 01-9.142 0v-2.383c0-.223-.08-.467-.266-.787a7.616 7.616 0 00-.514-.746l-.08-.104c-.158-.206-.503-.656-.63-.828C17.647 25.694 17 24.137 17 22a8 8 0 1116 0c0 2.184-.656 3.8-1.936 5.54-.136.185-.479.63-.681.893l-.153.2c-.26.344-.42.588-.524.8-.095.192-.135.34-.135.47zm-2.235-.544c.058-.316.166-.626.32-.937.18-.366.41-.714.746-1.162l.194-.253c.206-.268.511-.665.626-.82 1.016-1.382 1.492-2.555 1.492-4.187a5.714 5.714 0 10-11.428 0c0 1.576.464 2.693 1.49 4.078.11.149.42.554.588.773l.108.14c.288.38.49.674.666.974.272.468.453.924.532 1.397A4.423 4.423 0 0025 30c.85 0 1.622-.211 2.336-.64zm-.05 2.927V31.9a6.791 6.791 0 01-2.286.386c-.8 0-1.563-.13-2.286-.386v.386a2.286 2.286 0 004.572 0z" fill="#25AFA2"/>
</svg>
