<svg width="50" height="50" fill="none" xmlns="http://www.w3.org/2000/svg">
    <rect opacity=".1" width="50" height="50" rx="10" fill="#25AFA2"/>
    <path fill-rule="evenodd" clip-rule="evenodd" d="M26.1 32.6v-1.178a7.7 7.7 0 005.26-3.28c2.985-.41 4.64-2.997 4.64-6.542v-3.3a2.2 2.2 0 00-2.2-2.2h-1.394A2.2 2.2 0 0030.5 15h-11a2.2 2.2 0 00-1.906 1.1H16.2a2.2 2.2 0 00-2.2 2.2v3.3c0 3.545 1.655 6.131 4.64 6.543a7.7 7.7 0 005.26 3.279V32.6h-1.1a2.2 2.2 0 00-2.2 2.2h8.8a2.2 2.2 0 00-2.2-2.2h-1.1zm-9.9-14.3h1.1v5.5c0 .503.048.996.14 1.472-.81-.73-1.24-1.988-1.24-3.672v-3.3zm16.5 0v5.5c0 .503-.048.996-.14 1.472.81-.73 1.24-1.988 1.24-3.672v-3.3h-1.1zm-13.2 5.5v-6.6h11v6.6a5.5 5.5 0 11-11 0z" fill="#25AFA2"/>
</svg>
