<svg width="50" height="50" fill="none" xmlns="http://www.w3.org/2000/svg">
    <rect opacity=".1" width="50" height="50" rx="10" fill="#25AFA2"/>
    <path fill-rule="evenodd" clip-rule="evenodd" d="M33.788 25c2.411 3.943 3.017 7.747.988 9.776s-5.833 1.423-9.776-.988c-3.943 2.411-7.747 3.017-9.776.988s-1.423-5.833.988-9.776c-2.411-3.943-3.017-7.747-.988-9.776s5.833-1.423 9.776.988c3.943-2.411 7.747-3.017 9.776-.988s1.423 5.833-.988 9.776zm-1.453 2.108c1.458 2.707 1.804 5.046.812 6.039-.993.992-3.332.646-6.04-.812a28.512 28.512 0 002.781-2.447 28.512 28.512 0 002.447-2.78zM25 31.02a25.392 25.392 0 003.259-2.761A25.398 25.398 0 0031.02 25a25.394 25.394 0 00-2.761-3.259A25.398 25.398 0 0025 18.98a25.407 25.407 0 00-3.259 2.761A25.407 25.407 0 0018.98 25a25.4 25.4 0 002.761 3.259A25.398 25.398 0 0025 31.02zm8.147-14.167c.992.993.646 3.332-.812 6.04a28.524 28.524 0 00-2.447-2.781 28.524 28.524 0 00-2.78-2.447c2.707-1.458 5.046-1.804 6.039-.812zm-16.294 0c.993-.992 3.332-.646 6.04.812a28.512 28.512 0 00-2.781 2.447 28.512 28.512 0 00-2.447 2.78c-1.458-2.707-1.804-5.046-.812-6.039zm6.04 15.482a28.512 28.512 0 01-2.78-2.447 28.525 28.525 0 01-2.448-2.78c-1.458 2.707-1.804 5.046-.812 6.039.993.992 3.332.646 6.04-.812zM26.152 25a1.152 1.152 0 10-2.305 0 1.152 1.152 0 002.304 0z" fill="#25AFA2"/>
</svg>
