<svg width="76" height="96" fill="none" xmlns="http://www.w3.org/2000/svg">
    <path d="M.5.5h75v95H.5V.5z" fill="#D8D8D8" stroke="#fff"/>
    <path d="M4.75 10.167h-.5v81.592h67.5V10.167h-67zM.5.5h75v95H.5V.5zm4.75 10.667h65.5v79.592H5.25V11.167z" fill="#37B954" stroke="#fff"/>
    <path d="M5.25 11.167h65.5v79.592H5.25V11.167z" fill="#DDEDE1" stroke="#fff"/>
    <path d="M67 87.019h3.75v3.74H67v-3.74zm-61.75 0H9v3.74H5.25v-3.74z" fill="#37B954" stroke="#fff"/>
    <path d="M70.75 37.926c0 18.05-14.662 32.685-32.75 32.685S5.25 55.976 5.25 37.926C5.25 19.876 19.912 5.24 38 5.24s32.75 14.634 32.75 32.685z" fill="#000" stroke="#fff"/>
    <path d="M70.75 37.926c0 18.05-14.662 32.685-32.75 32.685S5.25 55.976 5.25 37.926C5.25 19.876 19.912 5.24 38 5.24s32.75 14.634 32.75 32.685z" fill="#fff" stroke="#fff"/>
    <mask id="a" maskUnits="userSpaceOnUse" x="8.774" y="26.439" width="59" height="10" fill="#000">
        <path fill="#fff" d="M8.774 26.439h59v10h-59z"/>
        <path d="M12.8 34.487c-.876 0-1.6-.29-2.17-.872-.57-.58-.856-1.297-.856-2.148 0-.857.285-1.574.856-2.149.57-.58 1.294-.871 2.17-.871.526 0 1.011.124 1.454.373.45.244.798.575 1.048.996l-.99.572a1.508 1.508 0 00-.615-.605 1.802 1.802 0 00-.897-.224c-.566 0-1.023.177-1.372.53-.344.355-.515.814-.515 1.378 0 .558.171 1.015.515 1.369.35.354.806.53 1.372.53.332 0 .631-.071.897-.215.272-.15.477-.351.616-.606l.989.573c-.25.42-.596.755-1.04 1.004a2.99 2.99 0 01-1.462.365z"/>
        <path d="M17.628 33.275h2.453v1.096h-3.6v-5.808h3.558v1.095h-2.41v1.236h2.202v1.079h-2.203v1.302z"/>
        <path d="M23.534 28.563c.56 0 1.03.188 1.413.564.382.376.574.838.574 1.386 0 .547-.192 1.01-.574 1.385-.382.376-.853.564-1.413.564H22.51v1.908h-1.147v-5.807h2.17zm0 2.83a.81.81 0 00.607-.25.888.888 0 00.24-.63.87.87 0 00-.24-.63.81.81 0 00-.607-.25H22.51v1.76h1.023z"/>
        <path d="M30.485 28.563v1.095h-1.57v4.712h-1.148v-4.712h-1.562v-1.095h4.28z"/>
        <path d="M34.968 34.37v-3.542l-2.494 3.543H31.6v-5.808h1.147v3.55l2.494-3.55h.873v5.808h-1.148z"/>
        <path d="M43.03 29.849c.483.415.724.954.724 1.618 0 .663-.241 1.203-.723 1.617-.483.415-1.128.661-1.937.739v.672h-1.122v-.672c-.815-.083-1.46-.33-1.937-.739-.477-.414-.715-.954-.715-1.617 0-.664.238-1.2.715-1.61.476-.415 1.122-.663 1.937-.746v-.672h1.122v.672c.809.077 1.454.323 1.937.738zm-1.936 2.929c1.008-.117 1.513-.553 1.513-1.311 0-.764-.505-1.203-1.513-1.32v2.63zm-2.635-1.311c0 .758.504 1.192 1.513 1.302v-2.613c-1.009.11-1.513.547-1.513 1.31z"/>
        <path d="M48.321 34.37v-3.542l-2.493 3.543h-.873v-5.808h1.147v3.55l2.494-3.55h.872v5.808h-1.147z"/>
        <path d="M55.57 34.37h-1.322l-2.078-2.72v2.72h-1.147v-5.807h1.147v2.564l1.995-2.564h1.322l-2.153 2.82 2.236 2.988z"/>
        <path d="M60.499 34.37l-.35-1.045H57.83l-.349 1.045h-1.238l2.036-5.807h1.422l2.045 5.808h-1.247zm-2.303-2.115h1.596l-.798-2.373-.798 2.373z"/>
        <path d="M66.212 28.563v1.095h-1.57v4.712h-1.148v-4.712H61.93v-1.095h4.281z"/>
    </mask>
    <path d="M12.8 34.487c-.876 0-1.6-.29-2.17-.872-.57-.58-.856-1.297-.856-2.148 0-.857.285-1.574.856-2.149.57-.58 1.294-.871 2.17-.871.526 0 1.011.124 1.454.373.45.244.798.575 1.048.996l-.99.572a1.508 1.508 0 00-.615-.605 1.802 1.802 0 00-.897-.224c-.566 0-1.023.177-1.372.53-.344.355-.515.814-.515 1.378 0 .558.171 1.015.515 1.369.35.354.806.53 1.372.53.332 0 .631-.071.897-.215.272-.15.477-.351.616-.606l.989.573c-.25.42-.596.755-1.04 1.004a2.99 2.99 0 01-1.462.365z" fill="#4D545B"/>
    <path d="M17.628 33.275h2.453v1.096h-3.6v-5.808h3.558v1.095h-2.41v1.236h2.202v1.079h-2.203v1.302z" fill="#4D545B"/>
    <path d="M23.534 28.563c.56 0 1.03.188 1.413.564.382.376.574.838.574 1.386 0 .547-.192 1.01-.574 1.385-.382.376-.853.564-1.413.564H22.51v1.908h-1.147v-5.807h2.17zm0 2.83a.81.81 0 00.607-.25.888.888 0 00.24-.63.87.87 0 00-.24-.63.81.81 0 00-.607-.25H22.51v1.76h1.023z" fill="#4D545B"/>
    <path d="M30.485 28.563v1.095h-1.57v4.712h-1.148v-4.712h-1.562v-1.095h4.28z" fill="#4D545B"/>
    <path d="M34.968 34.37v-3.542l-2.494 3.543H31.6v-5.808h1.147v3.55l2.494-3.55h.873v5.808h-1.148z" fill="#4D545B"/>
    <path d="M43.03 29.849c.483.415.724.954.724 1.618 0 .663-.241 1.203-.723 1.617-.483.415-1.128.661-1.937.739v.672h-1.122v-.672c-.815-.083-1.46-.33-1.937-.739-.477-.414-.715-.954-.715-1.617 0-.664.238-1.2.715-1.61.476-.415 1.122-.663 1.937-.746v-.672h1.122v.672c.809.077 1.454.323 1.937.738zm-1.936 2.929c1.008-.117 1.513-.553 1.513-1.311 0-.764-.505-1.203-1.513-1.32v2.63zm-2.635-1.311c0 .758.504 1.192 1.513 1.302v-2.613c-1.009.11-1.513.547-1.513 1.31z" fill="#4D545B"/>
    <path d="M48.321 34.37v-3.542l-2.493 3.543h-.873v-5.808h1.147v3.55l2.494-3.55h.872v5.808h-1.147z" fill="#4D545B"/>
    <path d="M55.57 34.37h-1.322l-2.078-2.72v2.72h-1.147v-5.807h1.147v2.564l1.995-2.564h1.322l-2.153 2.82 2.236 2.988z" fill="#4D545B"/>
    <path d="M60.499 34.37l-.35-1.045H57.83l-.349 1.045h-1.238l2.036-5.807h1.422l2.045 5.808h-1.247zm-2.303-2.115h1.596l-.798-2.373-.798 2.373z" fill="#4D545B"/>
    <path d="M66.212 28.563v1.095h-1.57v4.712h-1.148v-4.712H61.93v-1.095h4.281z" fill="#4D545B"/>
    <path d="M12.8 34.487c-.876 0-1.6-.29-2.17-.872-.57-.58-.856-1.297-.856-2.148 0-.857.285-1.574.856-2.149.57-.58 1.294-.871 2.17-.871.526 0 1.011.124 1.454.373.45.244.798.575 1.048.996l-.99.572a1.508 1.508 0 00-.615-.605 1.802 1.802 0 00-.897-.224c-.566 0-1.023.177-1.372.53-.344.355-.515.814-.515 1.378 0 .558.171 1.015.515 1.369.35.354.806.53 1.372.53.332 0 .631-.071.897-.215.272-.15.477-.351.616-.606l.989.573c-.25.42-.596.755-1.04 1.004a2.99 2.99 0 01-1.462.365z" stroke="#fff" stroke-width="2" mask="url(#a)"/>
    <path d="M17.628 33.275h2.453v1.096h-3.6v-5.808h3.558v1.095h-2.41v1.236h2.202v1.079h-2.203v1.302z" stroke="#fff" stroke-width="2" mask="url(#a)"/>
    <path d="M23.534 28.563c.56 0 1.03.188 1.413.564.382.376.574.838.574 1.386 0 .547-.192 1.01-.574 1.385-.382.376-.853.564-1.413.564H22.51v1.908h-1.147v-5.807h2.17zm0 2.83a.81.81 0 00.607-.25.888.888 0 00.24-.63.87.87 0 00-.24-.63.81.81 0 00-.607-.25H22.51v1.76h1.023z" stroke="#fff" stroke-width="2" mask="url(#a)"/>
    <path d="M30.485 28.563v1.095h-1.57v4.712h-1.148v-4.712h-1.562v-1.095h4.28z" stroke="#fff" stroke-width="2" mask="url(#a)"/>
    <path d="M34.968 34.37v-3.542l-2.494 3.543H31.6v-5.808h1.147v3.55l2.494-3.55h.873v5.808h-1.148z" stroke="#fff" stroke-width="2" mask="url(#a)"/>
    <path d="M43.03 29.849c.483.415.724.954.724 1.618 0 .663-.241 1.203-.723 1.617-.483.415-1.128.661-1.937.739v.672h-1.122v-.672c-.815-.083-1.46-.33-1.937-.739-.477-.414-.715-.954-.715-1.617 0-.664.238-1.2.715-1.61.476-.415 1.122-.663 1.937-.746v-.672h1.122v.672c.809.077 1.454.323 1.937.738zm-1.936 2.929c1.008-.117 1.513-.553 1.513-1.311 0-.764-.505-1.203-1.513-1.32v2.63zm-2.635-1.311c0 .758.504 1.192 1.513 1.302v-2.613c-1.009.11-1.513.547-1.513 1.31z" stroke="#fff" stroke-width="2" mask="url(#a)"/>
    <path d="M48.321 34.37v-3.542l-2.493 3.543h-.873v-5.808h1.147v3.55l2.494-3.55h.872v5.808h-1.147z" stroke="#fff" stroke-width="2" mask="url(#a)"/>
    <path d="M55.57 34.37h-1.322l-2.078-2.72v2.72h-1.147v-5.807h1.147v2.564l1.995-2.564h1.322l-2.153 2.82 2.236 2.988z" stroke="#fff" stroke-width="2" mask="url(#a)"/>
    <path d="M60.499 34.37l-.35-1.045H57.83l-.349 1.045h-1.238l2.036-5.807h1.422l2.045 5.808h-1.247zm-2.303-2.115h1.596l-.798-2.373-.798 2.373z" stroke="#fff" stroke-width="2" mask="url(#a)"/>
    <path d="M66.212 28.563v1.095h-1.57v4.712h-1.148v-4.712H61.93v-1.095h4.281z" stroke="#fff" stroke-width="2" mask="url(#a)"/>
    <path fill-rule="evenodd" clip-rule="evenodd" d="M23.75 18.43h28.5v.592h-28.5v-.592zM10.687 43.319h5.938v.592h-5.938v-.593zm9.5 0h3.563v.592h-3.563v-.593zm26.125 0H65.55v.592H46.313v-.593zM23.75 52.206h28.5v.593h-28.5v-.593zm-3.206 7.111H56.05v.593H20.544v-.593zm0 4.741H56.05v.593H20.544v-.593zm0 4.74H56.05v.593H20.544V68.8zm-.297 4.742h36.1v.592h-36.1v-.592zm23.69 13.037h5.938v.592h-5.938v-.592zm8.313 0h11.875v.592H52.25v-.592z" fill="#727272" stroke="#fff" stroke-width=".5" stroke-linecap="square"/>
    <path d="M41.063 11.852A3.059 3.059 0 0138 14.907a3.059 3.059 0 01-3.063-3.055A3.06 3.06 0 0138 8.796a3.06 3.06 0 013.063 3.056z" fill="#EADCC8" stroke="#fff"/>
</svg>
