<svg width="76" height="96" fill="none" xmlns="http://www.w3.org/2000/svg">
    <path d="M0 0h76v96H0V0z" fill="#D8D8D8"/>
    <path d="M0 0h76v96H0V0zm4.75 10.667h66.5v80.592H4.75V10.667z" fill="#C77B7B"/>
    <path d="M4.75 10.667h66.5v80.592H4.75V10.667z" fill="#FECDCD"/>
    <path d="M66.5 86.519h4.75v4.74H66.5v-4.74zm-61.75 0H9.5v4.74H4.75v-4.74z" fill="#C77B7B"/>
    <path d="M38 71.111c18.364 0 33.25-14.857 33.25-33.185C71.25 19.598 56.364 4.74 38 4.74c-18.363 0-33.25 14.857-33.25 33.185C4.75 56.254 19.637 71.11 38 71.11z" fill="#000"/>
    <path d="M38 71.111c18.364 0 33.25-14.857 33.25-33.185C71.25 19.598 56.364 4.74 38 4.74c-18.363 0-33.25 14.857-33.25 33.185C4.75 56.254 19.637 71.11 38 71.11z" fill="#fff"/>
    <path fill-rule="evenodd" clip-rule="evenodd" d="M23.75 18.43h28.5v.592h-28.5v-.592zM10.687 43.319h5.938v.592h-5.938v-.593zm9.5 0h3.563v.592h-3.563v-.593zm26.125 0H65.55v.592H46.313v-.593zM23.75 52.206h28.5v.593h-28.5v-.593zm-3.206 7.111H56.05v.593H20.544v-.593zm0 4.741H56.05v.593H20.544v-.593zm0 4.74H56.05v.593H20.544V68.8zm-.297 4.742h36.1v.592h-36.1v-.592zm23.69 13.037h5.938v.592h-5.938v-.592zm8.313 0h11.875v.592H52.25v-.592z" fill="#727272"/>
    <path d="M10.923 33.98c-.747 0-1.364-.248-1.852-.744-.487-.495-.73-1.107-.73-1.833 0-.732.243-1.343.73-1.834.488-.496 1.105-.743 1.852-.743.449 0 .863.106 1.241.318.383.208.681.491.894.85l-.844.488a1.286 1.286 0 00-.525-.517 1.537 1.537 0 00-.766-.19c-.483 0-.873.15-1.17.452-.294.302-.44.694-.44 1.175 0 .477.146.867.44 1.169.297.302.687.453 1.17.453.284 0 .539-.062.766-.184.232-.128.407-.3.525-.517l.844.488a2.341 2.341 0 01-.887.857 2.55 2.55 0 01-1.248.311z" fill="#4D545B"/>
    <path d="M16.761 31.31c.435.25.653.628.653 1.133 0 .42-.15.765-.447 1.034-.298.269-.665.403-1.1.403H13.76v-4.955h1.958c.426 0 .783.132 1.071.396.294.26.44.592.44.998 0 .41-.156.741-.468.992zm-1.043-1.472h-.979v1.09h.98a.498.498 0 00.375-.156.528.528 0 00.156-.389.54.54 0 00-.149-.39.506.506 0 00-.383-.155zm.15 3.13a.558.558 0 00.41-.164.589.589 0 00.164-.425.556.556 0 00-.163-.41.546.546 0 00-.412-.17H14.74v1.168h1.128z" fill="#4D545B"/>
    <path d="M21.03 33.88v-3.023L18.9 33.88h-.744v-4.955h.979v3.03l2.128-3.03h.744v4.955h-.979z" fill="#4D545B"/>
    <path d="M26.847 32.946h.532v1.883H26.4v-.949h-2.745v.949h-.979v-1.883h.482c.275-.383.412-.942.412-1.678v-2.343h3.277v4.02zm-2.639 0h1.66v-3.108h-1.32v1.444c0 .718-.113 1.272-.34 1.664z" fill="#4D545B"/>
    <path d="M29.112 32.946h2.093v.934h-3.071v-4.955h3.035v.934h-2.057v1.055h1.88v.92h-1.88v1.112z" fill="#4D545B"/>
    <path d="M35.28 28.925v.934h-1.34v4.021h-.98v-4.02h-1.333v-.935h3.653z" fill="#4D545B"/>
    <path d="M36.907 32.946H39v.934h-3.072v-4.955h3.036v.934h-2.057v1.055h1.88v.92h-1.88v1.112z" fill="#4D545B"/>
    <path d="M39.408 33.88v-.906c.293.043.513-.016.66-.177.146-.16.22-.474.22-.941v-2.931h3.376v4.955h-.972v-4.02H41.26v1.967c0 .43-.052.79-.156 1.083-.104.293-.248.51-.433.652-.18.141-.373.236-.581.283-.203.047-.43.059-.681.035z" fill="#4D545B"/>
    <path d="M46.537 30.553c.478 0 .88.16 1.206.481.326.321.49.715.49 1.183 0 .467-.164.861-.49 1.182a1.652 1.652 0 01-1.206.481h-1.851v-4.955h.979v1.628h.872zm0 2.414a.69.69 0 00.518-.212.742.742 0 00.206-.538.733.733 0 00-.206-.531.68.68 0 00-.518-.22h-.872v1.501h.872z" fill="#4D545B"/>
    <path d="M51.326 33.98c-.747 0-1.364-.248-1.851-.744-.487-.495-.73-1.107-.73-1.833 0-.732.243-1.343.73-1.834.487-.496 1.104-.743 1.851-.743.45 0 .863.106 1.241.318.383.208.681.491.894.85l-.844.488a1.286 1.286 0 00-.525-.517 1.537 1.537 0 00-.766-.19c-.482 0-.872.15-1.17.452-.294.302-.44.694-.44 1.175 0 .477.146.867.44 1.169.298.302.688.453 1.17.453.284 0 .54-.062.766-.184.232-.128.407-.3.525-.517l.844.488a2.341 2.341 0 01-.886.857 2.55 2.55 0 01-1.249.311z" fill="#4D545B"/>
    <path d="M57.427 28.925v.934h-1.34v4.021h-.98v-4.02h-1.333v-.935h3.653z" fill="#4D545B"/>
    <path d="M61.076 31.31c.435.25.652.628.652 1.133 0 .42-.149.765-.447 1.034-.298.269-.664.403-1.1.403h-2.106v-4.955h1.958c.425 0 .782.132 1.07.396.294.26.44.592.44.998 0 .41-.155.741-.467.992zm-1.043-1.472h-.979v1.09h.979a.498.498 0 00.376-.156.528.528 0 00.156-.389.541.541 0 00-.15-.39.506.506 0 00-.382-.155zm.149 3.13a.558.558 0 00.411-.164.589.589 0 00.163-.425.556.556 0 00-.163-.41.546.546 0 00-.411-.17h-1.128v1.168h1.128z" fill="#4D545B"/>
    <path d="M66.65 33.236a2.505 2.505 0 01-1.83.743 2.505 2.505 0 01-1.831-.743c-.496-.5-.745-1.111-.745-1.833 0-.723.248-1.331.745-1.827.501-.5 1.111-.75 1.83-.75.719 0 1.329.25 1.83.75.501.496.752 1.104.752 1.826 0 .723-.25 1.334-.752 1.834zm-2.973-.665c.307.302.688.453 1.142.453.454 0 .835-.151 1.142-.453.308-.307.461-.696.461-1.168 0-.473-.153-.862-.46-1.169a1.552 1.552 0 00-1.143-.46c-.454 0-.835.154-1.142.46-.307.307-.461.696-.461 1.168 0 .473.154.862.461 1.169z" fill="#4D545B"/>
    <path d="M38 15.407a3.559 3.559 0 003.563-3.555A3.559 3.559 0 0038 8.296a3.559 3.559 0 00-3.563 3.556A3.559 3.559 0 0038 15.407z" fill="#EADCC8"/>
</svg>
