<svg width="65" height="48" fill="none" xmlns="http://www.w3.org/2000/svg">
    <path d="M63.727 3.934h-4.27V2.452a1.276 1.276 0 00-.908-1.277A35.038 35.038 0 0049.465 0c-5.04 0-11.906 1.15-16.984 6.386C27.441 1.098 20.524 0 15.497 0a35.039 35.039 0 00-9.084 1.175c-.556.164-.93.69-.907 1.277v1.469H1.26C.564 3.921 0 4.493 0 5.198V45.99c0 .706.564 1.278 1.26 1.278.216-.001.429-.058.617-.166.126-.064 12.726-7.05 30.314-2.555h.303c.1.013.202.013.302 0 17.64-4.534 30.239 2.44 30.314 2.555.39.228.87.228 1.26 0a1.28 1.28 0 00.63-1.099V5.211c0-.705-.564-1.277-1.26-1.277h-.013zM2.52 43.96V6.488H5.53V38.52a1.27 1.27 0 001.449 1.277 54.412 54.412 0 017.875-.638c3.652-.065 7.289.492 10.76 1.647A45.748 45.748 0 002.52 43.96zm28.714-3.27c-2.62-1.737-7.736-4.074-16.38-4.074-2.291.005-4.58.155-6.853.447V3.461a34.302 34.302 0 017.471-.843c4.712 0 11.213 1.099 15.724 6.258l.038 31.814zm2.52-31.814c4.51-5.108 11.012-6.258 15.724-6.258a34.45 34.45 0 017.471.843v33.602a54.677 54.677 0 00-6.816-.46c-8.593 0-13.72 2.338-16.38 4.075V8.876zM62.468 43.96a45.756 45.756 0 00-23.146-3.155 32.353 32.353 0 0110.81-1.647c2.654.015 5.302.224 7.926.625a1.262 1.262 0 001.449-1.277V6.488h3.01l-.05 37.472z" fill="#37B954"/>
</svg>
