<svg width="46" height="40" fill="none" xmlns="http://www.w3.org/2000/svg">
    <path d="M.892 6.463h3.914v23.255c1.9-.288 3.82-.437 5.742-.446 2.684-.044 5.357.36 7.909 1.195l2.167 1.73c-1.275-.143-5.118-.215-6.375-.215a30.94 30.94 0 00-12.11 2.354l-1.247.535V6.463z" fill="#72DA89"/>
    <path d="M43.85 34.336a30.94 30.94 0 00-12.108-2.354c-1.266 0-4.886.143-6.152.286l1.944-1.784a24.208 24.208 0 017.944-1.212 39.85 39.85 0 015.742.446V6.463h3.915V34.88l-1.284-.544z" fill="#72DA89"/>
    <path d="M45.1 5.572h-3.023V4.537a.892.892 0 00-.642-.891 25.116 25.116 0 00-6.429-.82c-3.567 0-8.426.802-12.02 4.458-3.566-3.692-8.461-4.458-12.019-4.458-2.17-.006-4.33.27-6.429.82a.892.892 0 00-.642.891v1.026H.892c-.493 0-.892.4-.892.892v28.479a.892.892 0 001.329.775c.089-.044 9.005-4.922 21.453-1.783H22.995a.89.89 0 00.214 0c12.484-3.165 21.4 1.703 21.454 1.783A.892.892 0 0046 34.943V6.463c0-.492-.4-.891-.892-.891H45.1zM1.782 33.516V7.356h2.131v22.361a.892.892 0 001.026.892 39.004 39.004 0 015.572-.446 23.129 23.129 0 017.615 1.15 32.78 32.78 0 00-16.344 2.203zm20.32-2.283c-1.854-1.212-5.474-2.844-11.59-2.844a39.233 39.233 0 00-4.851.312V5.241a24.592 24.592 0 015.287-.588c3.335 0 7.936.767 11.128 4.37l.027 22.21zm1.784-22.21c3.192-3.567 7.793-4.37 11.128-4.37a24.7 24.7 0 015.287.589v23.46a39.22 39.22 0 00-4.823-.322c-6.081 0-9.71 1.632-11.592 2.844V9.022zm20.32 24.493a32.786 32.786 0 00-16.379-2.202 23.182 23.182 0 017.65-1.15c1.878.01 3.752.156 5.609.436a.892.892 0 001.025-.891V7.355h2.131l-.035 26.16z" fill="#37B954"/>
</svg>
