<svg width="24" height="25" fill="none" xmlns="http://www.w3.org/2000/svg">
    <path d="M11.299 5.67L8.53 2.528c-.257-.292-.713-.31-1.019-.04L5.323 4.416c-2.77 2.44.849 7.663 3.633 10.823 2.766 3.14 7.532 7.433 10.302 4.993l2.188-1.928c.306-.27.345-.724.088-1.016l-2.768-3.142c-.257-.292-.713-.31-1.019-.04l-2.188 1.928s-.991-.065-3.822-3.222C8.906 9.654 9.022 8.614 9.022 8.614l2.188-1.928c.306-.27.345-.724.089-1.016z" stroke="#4D545B" stroke-width="1.5" stroke-linecap="round" stroke-linejoin="round"/>
</svg>
