<svg width="395" height="618" fill="none" xmlns="http://www.w3.org/2000/svg">
    <g filter="url(#filter0_d)">
        <path d="M365 15a5 5 0 00-5-5H192.5a5 5 0 00-5 5v52.132a5 5 0 01-5 5H15a5 5 0 00-5 5V583a5 5 0 005 5h345a5 5 0 005-5V15z" fill="#FBFBFB"/>
        <path d="M364.5 15a4.5 4.5 0 00-4.5-4.5H192.5A4.5 4.5 0 00188 15v52.132a5.5 5.5 0 01-5.5 5.5H15a4.5 4.5 0 00-4.5 4.5V583a4.5 4.5 0 004.5 4.5h345a4.5 4.5 0 004.5-4.5V15z" stroke="#E3E3E3"/>
    </g>
    <defs>
        <filter id="filter0_d" x="0" y="0" width="395" height="618" filterUnits="userSpaceOnUse" color-interpolation-filters="sRGB">
            <feFlood flood-opacity="0" result="BackgroundImageFix"/>
            <feColorMatrix in="SourceAlpha" values="0 0 0 0 0 0 0 0 0 0 0 0 0 0 0 0 0 0 127 0"/>
            <feOffset dx="10" dy="10"/>
            <feGaussianBlur stdDeviation="10"/>
            <feColorMatrix values="0 0 0 0 1 0 0 0 0 1 0 0 0 0 1 0 0 0 0.4 0"/>
            <feBlend in2="BackgroundImageFix" result="effect1_dropShadow"/>
            <feBlend in="SourceGraphic" in2="effect1_dropShadow" result="shape"/>
        </filter>
    </defs>
</svg>
