<svg width="395" height="589" fill="none" xmlns="http://www.w3.org/2000/svg">
    <g filter="url(#filter0_d)">
        <path d="M10 15a5 5 0 015-5h167.5a5 5 0 015 5v52.132a5 5 0 005 5H360a5 5 0 015 5V554a5 5 0 01-5 5H15a5 5 0 01-5-5V15z" fill="#FBFBFB"/>
        <path d="M10.5 15a4.5 4.5 0 014.5-4.5h167.5A4.5 4.5 0 01187 15v52.132a5.5 5.5 0 005.5 5.5H360a4.5 4.5 0 014.5 4.5V554a4.5 4.5 0 01-4.5 4.5H15a4.5 4.5 0 01-4.5-4.5V15z" stroke="#E3E3E3"/>
    </g>
    <defs>
        <filter id="filter0_d" x="0" y="0" width="395" height="589" filterUnits="userSpaceOnUse" color-interpolation-filters="sRGB">
            <feFlood flood-opacity="0" result="BackgroundImageFix"/>
            <feColorMatrix in="SourceAlpha" values="0 0 0 0 0 0 0 0 0 0 0 0 0 0 0 0 0 0 127 0"/>
            <feOffset dx="10" dy="10"/>
            <feGaussianBlur stdDeviation="10"/>
            <feColorMatrix values="0 0 0 0 1 0 0 0 0 1 0 0 0 0 1 0 0 0 0.4 0"/>
            <feBlend in2="BackgroundImageFix" result="effect1_dropShadow"/>
            <feBlend in="SourceGraphic" in2="effect1_dropShadow" result="shape"/>
        </filter>
    </defs>
</svg>
